# xmcd
#
# Track frame offsets: 
#        150
#        21883
#        59963
#        94975
#
# Disc length: 1655 seconds
#
# Revision: 0
# Processed by: cddbd v1.5.2PL0 Copyright (c) Steve Scherf et al.
# Submitted via: ExactAudioCopy v0.95b4
#
DISCID=36067504
DTITLE=Karaja - She moves
DYEAR=2002
DGENRE=
TTITLE0=Oscar Salguero Club edit
TTITLE1=Love to infinity Master Mix
TTITLE2=Love to infinity Club mix
TTITLE3=X900 Extended
EXTD=
EXTT0=
EXTT1=
EXTT2=
EXTT3=
PLAYORDER=
